# Blender 5.1.2
# www.blender.org
mtllib Painkillers.mtl
o Cylinder
v 0.000000 -0.410093 -0.294825
v 0.000000 -0.382478 -0.316222
v 0.000000 -0.402005 -0.309955
v 0.000000 0.410093 -0.273763
v 0.000000 0.382478 -0.316222
v 0.000000 0.402005 -0.309955
v 0.057518 -0.410093 -0.289160
v 0.061692 -0.382478 -0.310146
v 0.060469 -0.402005 -0.304000
v 0.053408 0.410093 -0.268503
v 0.061692 0.382478 -0.310146
v 0.060469 0.402005 -0.304000
v 0.112825 -0.410093 -0.272383
v 0.121013 -0.382478 -0.292151
v 0.118615 -0.402005 -0.286361
v 0.104765 0.410093 -0.252924
v 0.121013 0.382478 -0.292151
v 0.118615 0.402005 -0.286361
v 0.163796 -0.410093 -0.245138
v 0.175684 -0.382478 -0.262929
v 0.172202 -0.402005 -0.257718
v 0.152095 0.410093 -0.227626
v 0.175684 0.382478 -0.262929
v 0.172202 0.402005 -0.257718
v 0.208473 -0.410093 -0.208473
v 0.223603 -0.382478 -0.223603
v 0.219171 -0.402005 -0.219171
v 0.193580 0.410093 -0.193580
v 0.223603 0.382478 -0.223603
v 0.219171 0.402005 -0.219171
v 0.245138 -0.410093 -0.163796
v 0.262929 -0.382478 -0.175684
v 0.257718 -0.402005 -0.172202
v 0.227626 0.410093 -0.152095
v 0.262929 0.382478 -0.175684
v 0.257718 0.402005 -0.172202
v 0.272383 -0.410093 -0.112825
v 0.292151 -0.382478 -0.121013
v 0.286361 -0.402005 -0.118615
v 0.252924 0.410093 -0.104765
v 0.292151 0.382478 -0.121013
v 0.286361 0.402005 -0.118615
v 0.289160 -0.410093 -0.057518
v 0.310146 -0.382478 -0.061692
v 0.304000 -0.402005 -0.060469
v 0.268503 0.410093 -0.053408
v 0.310146 0.382478 -0.061692
v 0.304000 0.402005 -0.060469
v 0.294825 -0.410093 0.000000
v 0.316222 -0.382478 0.000000
v 0.309955 -0.402005 0.000000
v 0.273763 0.410093 0.000000
v 0.316222 0.382478 0.000000
v 0.309955 0.402005 0.000000
v 0.289160 -0.410093 0.057518
v 0.310146 -0.382478 0.061692
v 0.304000 -0.402005 0.060469
v 0.268503 0.410093 0.053408
v 0.310146 0.382478 0.061692
v 0.304000 0.402005 0.060469
v 0.272383 -0.410093 0.112825
v 0.292151 -0.382478 0.121013
v 0.286361 -0.402005 0.118615
v 0.252924 0.410093 0.104765
v 0.292151 0.382478 0.121013
v 0.286361 0.402005 0.118615
v 0.245138 -0.410093 0.163796
v 0.262929 -0.382478 0.175684
v 0.257718 -0.402005 0.172202
v 0.227626 0.410093 0.152095
v 0.262929 0.382478 0.175684
v 0.257718 0.402005 0.172202
v 0.208473 -0.410093 0.208473
v 0.223603 -0.382478 0.223603
v 0.219171 -0.402005 0.219171
v 0.193580 0.410093 0.193580
v 0.223603 0.382478 0.223603
v 0.219171 0.402005 0.219171
v 0.163796 -0.410093 0.245138
v 0.175684 -0.382478 0.262929
v 0.172202 -0.402005 0.257718
v 0.152095 0.410093 0.227626
v 0.175684 0.382478 0.262929
v 0.172202 0.402005 0.257718
v 0.112825 -0.410093 0.272383
v 0.121013 -0.382478 0.292151
v 0.118615 -0.402005 0.286361
v 0.104765 0.410093 0.252924
v 0.121013 0.382478 0.292151
v 0.118615 0.402005 0.286361
v 0.057518 -0.410093 0.289160
v 0.061692 -0.382478 0.310146
v 0.060469 -0.402005 0.304000
v 0.053408 0.410093 0.268503
v 0.061692 0.382478 0.310146
v 0.060469 0.402005 0.304000
v 0.000000 -0.410093 0.294825
v 0.000000 -0.382478 0.316222
v 0.000000 -0.402005 0.309955
v 0.000000 0.410093 0.273763
v 0.000000 0.382478 0.316222
v 0.000000 0.402005 0.309955
v -0.057518 -0.410093 0.289160
v -0.061692 -0.382478 0.310146
v -0.060469 -0.402005 0.304000
v -0.053408 0.410093 0.268503
v -0.061692 0.382478 0.310146
v -0.060469 0.402005 0.304000
v -0.112825 -0.410093 0.272383
v -0.121013 -0.382478 0.292151
v -0.118615 -0.402005 0.286361
v -0.104765 0.410093 0.252924
v -0.121013 0.382478 0.292151
v -0.118615 0.402005 0.286361
v -0.163796 -0.410093 0.245138
v -0.175684 -0.382478 0.262929
v -0.172202 -0.402005 0.257718
v -0.152095 0.410093 0.227626
v -0.175684 0.382478 0.262929
v -0.172202 0.402005 0.257718
v -0.208473 -0.410093 0.208473
v -0.223603 -0.382478 0.223603
v -0.219171 -0.402005 0.219171
v -0.193580 0.410093 0.193580
v -0.223603 0.382478 0.223603
v -0.219171 0.402005 0.219171
v -0.245138 -0.410093 0.163796
v -0.262929 -0.382478 0.175684
v -0.257718 -0.402005 0.172202
v -0.227626 0.410093 0.152095
v -0.262929 0.382478 0.175684
v -0.257718 0.402005 0.172202
v -0.272383 -0.410093 0.112825
v -0.292151 -0.382478 0.121013
v -0.286361 -0.402005 0.118615
v -0.252924 0.410093 0.104765
v -0.292151 0.382478 0.121013
v -0.286361 0.402005 0.118615
v -0.289160 -0.410093 0.057518
v -0.310146 -0.382478 0.061692
v -0.304000 -0.402005 0.060469
v -0.268503 0.410093 0.053408
v -0.310146 0.382478 0.061692
v -0.304000 0.402005 0.060469
v -0.294825 -0.410093 0.000000
v -0.316222 -0.382478 0.000000
v -0.309955 -0.402005 0.000000
v -0.273763 0.410093 0.000000
v -0.316222 0.382478 0.000000
v -0.309955 0.402005 0.000000
v -0.289160 -0.410093 -0.057518
v -0.310146 -0.382478 -0.061692
v -0.304000 -0.402005 -0.060469
v -0.268503 0.410093 -0.053408
v -0.310146 0.382478 -0.061692
v -0.304000 0.402005 -0.060469
v -0.272383 -0.410093 -0.112825
v -0.292151 -0.382478 -0.121013
v -0.286361 -0.402005 -0.118615
v -0.252924 0.410093 -0.104765
v -0.292151 0.382478 -0.121013
v -0.286361 0.402005 -0.118615
v -0.245138 -0.410093 -0.163796
v -0.262929 -0.382478 -0.175684
v -0.257718 -0.402005 -0.172202
v -0.227626 0.410093 -0.152095
v -0.262929 0.382478 -0.175684
v -0.257718 0.402005 -0.172202
v -0.208473 -0.410093 -0.208473
v -0.223603 -0.382478 -0.223603
v -0.219171 -0.402005 -0.219171
v -0.193580 0.410093 -0.193580
v -0.223603 0.382478 -0.223603
v -0.219171 0.402005 -0.219171
v -0.163796 -0.410093 -0.245138
v -0.175684 -0.382478 -0.262929
v -0.172202 -0.402005 -0.257718
v -0.152095 0.410093 -0.227626
v -0.175684 0.382478 -0.262929
v -0.172202 0.402005 -0.257718
v -0.112825 -0.410093 -0.272383
v -0.121013 -0.382478 -0.292151
v -0.118615 -0.402005 -0.286361
v -0.104765 0.410093 -0.252924
v -0.121013 0.382478 -0.292151
v -0.118615 0.402005 -0.286361
v -0.057518 -0.410093 -0.289160
v -0.061692 -0.382478 -0.310146
v -0.060469 -0.402005 -0.304000
v -0.053408 0.410093 -0.268503
v -0.061692 0.382478 -0.310146
v -0.060469 0.402005 -0.304000
v 0.000000 0.410093 -0.294825
v 0.057518 0.410093 -0.289160
v 0.112825 0.410093 -0.272383
v 0.163796 0.410093 -0.245138
v 0.208473 0.410093 -0.208473
v 0.245138 0.410093 -0.163796
v 0.272383 0.410093 -0.112825
v 0.289160 0.410093 -0.057518
v 0.294825 0.410093 0.000000
v 0.289160 0.410093 0.057518
v 0.272383 0.410093 0.112825
v 0.245138 0.410093 0.163796
v 0.208473 0.410093 0.208473
v 0.163796 0.410093 0.245138
v 0.112825 0.410093 0.272383
v 0.057518 0.410093 0.289160
v 0.000000 0.410093 0.294825
v -0.057518 0.410093 0.289160
v -0.112825 0.410093 0.272383
v -0.163796 0.410093 0.245138
v -0.208473 0.410093 0.208473
v -0.245138 0.410093 0.163796
v -0.272383 0.410093 0.112825
v -0.289160 0.410093 0.057518
v -0.294825 0.410093 0.000000
v -0.289160 0.410093 -0.057518
v -0.272383 0.410093 -0.112825
v -0.245138 0.410093 -0.163796
v -0.208473 0.410093 -0.208473
v -0.163796 0.410093 -0.245138
v -0.112825 0.410093 -0.272383
v -0.057518 0.410093 -0.289160
v 0.000000 0.491481 -0.294825
v 0.057518 0.491481 -0.289160
v 0.112825 0.491481 -0.272383
v 0.163796 0.491481 -0.245138
v 0.208473 0.491481 -0.208473
v 0.245138 0.491481 -0.163796
v 0.272383 0.491481 -0.112825
v 0.289160 0.491481 -0.057518
v 0.294825 0.491481 0.000000
v 0.289160 0.491481 0.057518
v 0.272383 0.491481 0.112825
v 0.245138 0.491481 0.163796
v 0.208473 0.491481 0.208473
v 0.163796 0.491481 0.245138
v 0.112825 0.491481 0.272383
v 0.057518 0.491481 0.289160
v 0.000000 0.491481 0.294825
v -0.057518 0.491481 0.289160
v -0.112825 0.491481 0.272383
v -0.163796 0.491481 0.245138
v -0.208473 0.491481 0.208473
v -0.245138 0.491481 0.163796
v -0.272383 0.491481 0.112825
v -0.289160 0.491481 0.057518
v -0.294825 0.491481 0.000000
v -0.289160 0.491481 -0.057518
v -0.272383 0.491481 -0.112825
v -0.245138 0.491481 -0.163796
v -0.208473 0.491481 -0.208473
v -0.163796 0.491481 -0.245138
v -0.112825 0.491481 -0.272383
v -0.057518 0.491481 -0.289160
v 0.000000 0.491481 -0.273763
v 0.053408 0.491481 -0.268503
v 0.104765 0.491481 -0.252924
v 0.152095 0.491481 -0.227626
v 0.193580 0.491481 -0.193580
v 0.227626 0.491481 -0.152095
v 0.252924 0.491481 -0.104765
v 0.268503 0.491481 -0.053408
v 0.273763 0.491481 0.000000
v 0.268503 0.491481 0.053408
v 0.252924 0.491481 0.104765
v 0.227626 0.491481 0.152095
v 0.193580 0.491481 0.193580
v 0.152095 0.491481 0.227626
v 0.104765 0.491481 0.252924
v 0.053408 0.491481 0.268503
v 0.000000 0.491481 0.273763
v -0.053408 0.491481 0.268503
v -0.104765 0.491481 0.252924
v -0.152095 0.491481 0.227626
v -0.193580 0.491481 0.193580
v -0.227626 0.491481 0.152095
v -0.252924 0.491481 0.104765
v -0.268503 0.491481 0.053408
v -0.273763 0.491481 0.000000
v -0.268503 0.491481 -0.053408
v -0.252924 0.491481 -0.104765
v -0.227626 0.491481 -0.152095
v -0.193580 0.491481 -0.193580
v -0.152095 0.491481 -0.227626
v -0.104765 0.491481 -0.252924
v -0.053408 0.491481 -0.268503
v 0.000000 0.424609 -0.318013
v 0.000000 0.691687 -0.318013
v 0.062041 0.424609 -0.311903
v 0.062041 0.691687 -0.311903
v 0.121698 0.424609 -0.293806
v 0.121698 0.691687 -0.293806
v 0.176679 0.424609 -0.264418
v 0.176679 0.691687 -0.264418
v 0.224869 0.424609 -0.224869
v 0.224869 0.691687 -0.224869
v 0.264418 0.424609 -0.176679
v 0.264418 0.691687 -0.176679
v 0.293806 0.424609 -0.121698
v 0.293806 0.691687 -0.121698
v 0.311903 0.424609 -0.062041
v 0.311903 0.691687 -0.062041
v 0.318013 0.424609 -0.000000
v 0.318013 0.691687 -0.000000
v 0.311903 0.424609 0.062041
v 0.311903 0.691687 0.062041
v 0.293806 0.424609 0.121698
v 0.293806 0.691687 0.121698
v 0.264418 0.424609 0.176679
v 0.264418 0.691687 0.176679
v 0.224869 0.424609 0.224869
v 0.224869 0.691687 0.224869
v 0.176679 0.424609 0.264418
v 0.176679 0.691687 0.264418
v 0.121698 0.424609 0.293806
v 0.121698 0.691687 0.293806
v 0.062041 0.424609 0.311903
v 0.062041 0.691687 0.311903
v 0.000000 0.424609 0.318013
v 0.000000 0.691687 0.318013
v -0.062041 0.424609 0.311903
v -0.062041 0.691687 0.311903
v -0.121698 0.424609 0.293806
v -0.121698 0.691687 0.293806
v -0.176679 0.424609 0.264418
v -0.176679 0.691687 0.264418
v -0.224869 0.424609 0.224869
v -0.224869 0.691687 0.224869
v -0.264418 0.424609 0.176679
v -0.264418 0.691687 0.176679
v -0.293806 0.424609 0.121698
v -0.293806 0.691687 0.121698
v -0.311903 0.424609 0.062041
v -0.311903 0.691687 0.062041
v -0.318013 0.424609 -0.000000
v -0.318013 0.691687 -0.000000
v -0.311903 0.424609 -0.062041
v -0.311903 0.691687 -0.062041
v -0.293806 0.424609 -0.121698
v -0.293806 0.691687 -0.121698
v -0.264418 0.424609 -0.176679
v -0.264418 0.691687 -0.176679
v -0.224869 0.424609 -0.224869
v -0.224869 0.691687 -0.224869
v -0.176679 0.424609 -0.264418
v -0.176679 0.691687 -0.264418
v -0.121698 0.424609 -0.293806
v -0.121698 0.691687 -0.293806
v -0.062041 0.424609 -0.311903
v -0.062041 0.691687 -0.311903
vn -0.0000 -0.9647 -0.2632
vn -0.0000 -0.1504 -0.9886
vn -0.0000 -0.5993 -0.8005
vn -0.0000 0.5877 0.8091
vn -0.0000 0.1504 -0.9886
vn -0.0000 0.5993 -0.8005
vn 0.0514 -0.9647 -0.2582
vn 0.1929 -0.1504 -0.9696
vn 0.1562 -0.5993 -0.7852
vn -0.1578 0.5877 0.7935
vn 0.1929 0.1504 -0.9696
vn 0.1562 0.5993 -0.7852
vn 0.1007 -0.9647 -0.2432
vn 0.3783 -0.1504 -0.9134
vn 0.3064 -0.5993 -0.7396
vn -0.3096 0.5877 0.7475
vn 0.3783 0.1504 -0.9134
vn 0.3064 0.5993 -0.7396
vn 0.1462 -0.9647 -0.2189
vn 0.5492 -0.1504 -0.8220
vn 0.4448 -0.5993 -0.6656
vn -0.4495 0.5877 0.6727
vn 0.5492 0.1504 -0.8220
vn 0.4448 0.5993 -0.6656
vn 0.1861 -0.9647 -0.1861
vn 0.6991 -0.1504 -0.6991
vn 0.5661 -0.5993 -0.5661
vn -0.5721 0.5877 0.5721
vn 0.6991 0.1504 -0.6991
vn 0.5661 0.5993 -0.5661
vn 0.2189 -0.9647 -0.1462
vn 0.8220 -0.1504 -0.5492
vn 0.6656 -0.5993 -0.4448
vn -0.6727 0.5877 0.4495
vn 0.8220 0.1504 -0.5492
vn 0.6656 0.5993 -0.4448
vn 0.2432 -0.9647 -0.1007
vn 0.9134 -0.1504 -0.3783
vn 0.7396 -0.5993 -0.3064
vn -0.7475 0.5877 0.3096
vn 0.9134 0.1504 -0.3783
vn 0.7396 0.5993 -0.3064
vn 0.2582 -0.9647 -0.0514
vn 0.9696 -0.1504 -0.1929
vn 0.7852 -0.5993 -0.1562
vn -0.7935 0.5877 0.1578
vn 0.9696 0.1504 -0.1929
vn 0.7852 0.5993 -0.1562
vn 0.2632 -0.9647 -0.0000
vn 0.9886 -0.1504 -0.0000
vn 0.8005 -0.5993 -0.0000
vn -0.8091 0.5877 -0.0000
vn 0.9886 0.1504 -0.0000
vn 0.8005 0.5993 -0.0000
vn 0.2582 -0.9647 0.0514
vn 0.9696 -0.1504 0.1929
vn 0.7852 -0.5993 0.1562
vn -0.7935 0.5877 -0.1578
vn 0.9696 0.1504 0.1929
vn 0.7852 0.5993 0.1562
vn 0.2432 -0.9647 0.1007
vn 0.9134 -0.1504 0.3783
vn 0.7396 -0.5993 0.3064
vn -0.7475 0.5877 -0.3096
vn 0.9134 0.1504 0.3783
vn 0.7396 0.5993 0.3064
vn 0.2189 -0.9647 0.1462
vn 0.8220 -0.1504 0.5492
vn 0.6656 -0.5993 0.4448
vn -0.6727 0.5877 -0.4495
vn 0.8220 0.1504 0.5492
vn 0.6656 0.5993 0.4448
vn 0.1861 -0.9647 0.1861
vn 0.6991 -0.1504 0.6991
vn 0.5661 -0.5993 0.5661
vn -0.5721 0.5877 -0.5721
vn 0.6991 0.1504 0.6991
vn 0.5661 0.5993 0.5661
vn 0.1462 -0.9647 0.2189
vn 0.5492 -0.1504 0.8220
vn 0.4448 -0.5993 0.6656
vn -0.4495 0.5877 -0.6727
vn 0.5492 0.1504 0.8220
vn 0.4448 0.5993 0.6656
vn 0.1007 -0.9647 0.2432
vn 0.3783 -0.1504 0.9134
vn 0.3064 -0.5993 0.7396
vn -0.3096 0.5877 -0.7475
vn 0.3783 0.1504 0.9134
vn 0.3064 0.5993 0.7396
vn 0.0514 -0.9647 0.2582
vn 0.1929 -0.1504 0.9696
vn 0.1562 -0.5993 0.7852
vn -0.1578 0.5877 -0.7935
vn 0.1929 0.1504 0.9696
vn 0.1562 0.5993 0.7852
vn -0.0000 -0.9647 0.2632
vn -0.0000 -0.1504 0.9886
vn -0.0000 -0.5993 0.8005
vn -0.0000 0.5877 -0.8091
vn -0.0000 0.1504 0.9886
vn -0.0000 0.5993 0.8005
vn -0.0514 -0.9647 0.2582
vn -0.1929 -0.1504 0.9696
vn -0.1562 -0.5993 0.7852
vn 0.1578 0.5877 -0.7935
vn -0.1929 0.1504 0.9696
vn -0.1562 0.5993 0.7852
vn -0.1007 -0.9647 0.2432
vn -0.3783 -0.1504 0.9134
vn -0.3064 -0.5993 0.7396
vn 0.3096 0.5877 -0.7475
vn -0.3783 0.1504 0.9134
vn -0.3064 0.5993 0.7396
vn -0.1462 -0.9647 0.2189
vn -0.5492 -0.1504 0.8220
vn -0.4448 -0.5993 0.6656
vn 0.4495 0.5877 -0.6727
vn -0.5492 0.1504 0.8220
vn -0.4448 0.5993 0.6656
vn -0.1861 -0.9647 0.1861
vn -0.6991 -0.1504 0.6991
vn -0.5661 -0.5993 0.5661
vn 0.5721 0.5877 -0.5721
vn -0.6991 0.1504 0.6991
vn -0.5661 0.5993 0.5661
vn -0.2189 -0.9647 0.1462
vn -0.8220 -0.1504 0.5492
vn -0.6656 -0.5993 0.4448
vn 0.6727 0.5877 -0.4495
vn -0.8220 0.1504 0.5492
vn -0.6656 0.5993 0.4448
vn -0.2432 -0.9647 0.1007
vn -0.9134 -0.1504 0.3783
vn -0.7396 -0.5993 0.3064
vn 0.7475 0.5877 -0.3096
vn -0.9134 0.1504 0.3783
vn -0.7396 0.5993 0.3064
vn -0.2582 -0.9647 0.0514
vn -0.9696 -0.1504 0.1929
vn -0.7852 -0.5993 0.1562
vn 0.7935 0.5877 -0.1578
vn -0.9696 0.1504 0.1929
vn -0.7852 0.5993 0.1562
vn -0.2632 -0.9647 -0.0000
vn -0.9886 -0.1504 -0.0000
vn -0.8005 -0.5993 -0.0000
vn 0.8091 0.5877 -0.0000
vn -0.9886 0.1504 -0.0000
vn -0.8005 0.5993 -0.0000
vn -0.2582 -0.9647 -0.0514
vn -0.9696 -0.1504 -0.1929
vn -0.7852 -0.5993 -0.1562
vn 0.7935 0.5877 0.1578
vn -0.9696 0.1504 -0.1929
vn -0.7852 0.5993 -0.1562
vn -0.2432 -0.9647 -0.1007
vn -0.9134 -0.1504 -0.3783
vn -0.7396 -0.5993 -0.3064
vn 0.7475 0.5877 0.3096
vn -0.9134 0.1504 -0.3783
vn -0.7396 0.5993 -0.3064
vn -0.2189 -0.9647 -0.1462
vn -0.8220 -0.1504 -0.5492
vn -0.6656 -0.5993 -0.4448
vn 0.6727 0.5877 0.4495
vn -0.8220 0.1504 -0.5492
vn -0.6656 0.5993 -0.4448
vn -0.1861 -0.9647 -0.1861
vn -0.6991 -0.1504 -0.6991
vn -0.5661 -0.5993 -0.5661
vn 0.5721 0.5877 0.5721
vn -0.6991 0.1504 -0.6991
vn -0.5661 0.5993 -0.5661
vn -0.1462 -0.9647 -0.2189
vn -0.5492 -0.1504 -0.8220
vn -0.4448 -0.5993 -0.6656
vn 0.4495 0.5877 0.6727
vn -0.5492 0.1504 -0.8220
vn -0.4448 0.5993 -0.6656
vn -0.1007 -0.9647 -0.2432
vn -0.3783 -0.1504 -0.9134
vn -0.3064 -0.5993 -0.7396
vn 0.3096 0.5877 0.7475
vn -0.3783 0.1504 -0.9134
vn -0.3064 0.5993 -0.7396
vn -0.0514 -0.9647 -0.2582
vn -0.1929 -0.1504 -0.9696
vn -0.1562 -0.5993 -0.7852
vn 0.1578 0.5877 0.7935
vn -0.1929 0.1504 -0.9696
vn -0.1562 0.5993 -0.7852
vn -0.0000 0.4745 -0.8803
vn 0.1717 0.4745 -0.8634
vn 0.3369 0.4745 -0.8133
vn 0.4891 0.4745 -0.7319
vn 0.6224 0.4745 -0.6224
vn 0.7319 0.4745 -0.4891
vn 0.8133 0.4745 -0.3369
vn 0.8634 0.4745 -0.1717
vn 0.8803 0.4745 -0.0000
vn 0.8634 0.4745 0.1717
vn 0.8133 0.4745 0.3369
vn 0.7319 0.4745 0.4891
vn 0.6224 0.4745 0.6224
vn 0.4891 0.4745 0.7319
vn 0.3369 0.4745 0.8133
vn 0.1717 0.4745 0.8634
vn -0.0000 0.4745 0.8803
vn -0.1717 0.4745 0.8634
vn -0.3369 0.4745 0.8133
vn -0.4891 0.4745 0.7319
vn -0.6224 0.4745 0.6224
vn -0.7319 0.4745 0.4891
vn -0.8133 0.4745 0.3369
vn -0.8634 0.4745 0.1717
vn -0.8803 0.4745 -0.0000
vn -0.8634 0.4745 -0.1717
vn -0.8133 0.4745 -0.3369
vn -0.7319 0.4745 -0.4891
vn -0.6224 0.4745 -0.6224
vn -0.4891 0.4745 -0.7319
vn -0.3369 0.4745 -0.8133
vn -0.1717 0.4745 -0.8634
vn -0.0000 0.6356 0.7720
vn -0.1506 0.6356 0.7572
vn -0.2954 0.6356 0.7133
vn -0.4289 0.6356 0.6419
vn -0.5459 0.6356 0.5459
vn -0.6419 0.6356 0.4289
vn -0.7133 0.6356 0.2954
vn -0.7572 0.6356 0.1506
vn -0.7720 0.6356 -0.0000
vn -0.7572 0.6356 -0.1506
vn -0.7133 0.6356 -0.2954
vn -0.6419 0.6356 -0.4289
vn -0.5459 0.6356 -0.5459
vn -0.4289 0.6356 -0.6419
vn -0.2954 0.6356 -0.7133
vn -0.1506 0.6356 -0.7572
vn -0.0000 0.6356 -0.7720
vn 0.1506 0.6356 -0.7572
vn 0.2954 0.6356 -0.7133
vn 0.4289 0.6356 -0.6419
vn 0.5459 0.6356 -0.5459
vn 0.6419 0.6356 -0.4289
vn 0.7133 0.6356 -0.2954
vn 0.7572 0.6356 -0.1506
vn 0.7720 0.6356 -0.0000
vn 0.7572 0.6356 0.1506
vn 0.7133 0.6356 0.2954
vn 0.6419 0.6356 0.4289
vn 0.5459 0.6356 0.5459
vn 0.4289 0.6356 0.6419
vn 0.2954 0.6356 0.7133
vn 0.1506 0.6356 0.7572
vn -0.0000 -0.5877 -0.8091
vn 0.1578 -0.5877 -0.7935
vn 0.3096 -0.5877 -0.7475
vn 0.4495 -0.5877 -0.6727
vn 0.5721 -0.5877 -0.5721
vn 0.6727 -0.5877 -0.4495
vn 0.7475 -0.5877 -0.3096
vn 0.7935 -0.5877 -0.1578
vn 0.8091 -0.5877 -0.0000
vn 0.7935 -0.5877 0.1578
vn 0.7475 -0.5877 0.3096
vn 0.6727 -0.5877 0.4495
vn 0.5721 -0.5877 0.5721
vn 0.4495 -0.5877 0.6727
vn 0.3096 -0.5877 0.7475
vn 0.1578 -0.5877 0.7935
vn -0.0000 -0.5877 0.8091
vn -0.1578 -0.5877 0.7935
vn -0.3096 -0.5877 0.7475
vn -0.4495 -0.5877 0.6727
vn -0.5721 -0.5877 0.5721
vn -0.6727 -0.5877 0.4495
vn -0.7475 -0.5877 0.3096
vn -0.7935 -0.5877 0.1578
vn -0.8091 -0.5877 -0.0000
vn -0.7935 -0.5877 -0.1578
vn -0.7475 -0.5877 -0.3096
vn -0.6727 -0.5877 -0.4495
vn -0.5721 -0.5877 -0.5721
vn -0.4495 -0.5877 -0.6727
vn -0.3096 -0.5877 -0.7475
vn -0.1578 -0.5877 -0.7935
vt 1.000687 0.037056
vt 0.969241 0.037056
vt 0.969241 0.020116
vt 1.000376 0.020116
vt 0.907233 0.079983
vt 0.912951 0.079420
vt 0.912565 0.077480
vt 0.907233 0.078005
vt 0.969241 0.506323
vt 1.000687 0.506323
vt 1.000376 0.523264
vt 0.969241 0.523264
vt 0.315833 0.088642
vt 0.307973 0.089417
vt 0.306765 0.051092
vt 0.306135 0.051154
vt 0.937794 0.037056
vt 0.937794 0.020116
vt 0.918448 0.077752
vt 0.917691 0.075925
vt 0.937794 0.506323
vt 0.937794 0.523264
vt 0.323391 0.086350
vt 0.305529 0.051338
vt 0.906347 0.037056
vt 0.906347 0.020116
vt 0.923515 0.075044
vt 0.922416 0.073399
vt 0.906347 0.506323
vt 0.906347 0.523264
vt 0.330357 0.082627
vt 0.304971 0.051636
vt 0.874900 0.037056
vt 0.874900 0.020116
vt 0.927955 0.071399
vt 0.926557 0.070001
vt 0.874900 0.506323
vt 0.874900 0.523264
vt 0.336462 0.077616
vt 0.304482 0.052038
vt 0.843454 0.037056
vt 0.843454 0.020116
vt 0.931600 0.066958
vt 0.929955 0.065860
vt 0.843454 0.506323
vt 0.843454 0.523264
vt 0.341472 0.071511
vt 0.304080 0.052527
vt 0.812007 0.037056
vt 0.812007 0.020116
vt 0.934308 0.061892
vt 0.932481 0.061135
vt 0.812007 0.506323
vt 0.812007 0.523264
vt 0.345196 0.064545
vt 0.303782 0.053086
vt 0.780560 0.037056
vt 0.780560 0.020116
vt 0.935976 0.056395
vt 0.934036 0.056009
vt 0.780560 0.506323
vt 0.780560 0.523264
vt 0.347488 0.056987
vt 0.303598 0.053692
vt 0.749113 0.037056
vt 0.749113 0.020116
vt 0.936539 0.050677
vt 0.934561 0.050677
vt 0.749113 0.506323
vt 0.749113 0.523264
vt 0.348262 0.049127
vt 0.303536 0.054322
vt 0.717667 0.037056
vt 0.717667 0.020116
vt 0.935976 0.044960
vt 0.934036 0.045346
vt 0.717667 0.506323
vt 0.717667 0.523264
vt 0.347488 0.041267
vt 0.303598 0.054952
vt 0.686220 0.037056
vt 0.686220 0.020116
vt 0.934308 0.039463
vt 0.932481 0.040220
vt 0.686220 0.506323
vt 0.686220 0.523264
vt 0.345196 0.033709
vt 0.303782 0.055557
vt 0.654773 0.037056
vt 0.654773 0.020116
vt 0.931600 0.034396
vt 0.929955 0.035495
vt 0.654773 0.506323
vt 0.654773 0.523264
vt 0.341472 0.026744
vt 0.304080 0.056116
vt 0.623326 0.037056
vt 0.623326 0.020116
vt 0.927955 0.029955
vt 0.926557 0.031354
vt 0.623326 0.506323
vt 0.623326 0.523264
vt 0.336462 0.020638
vt 0.304482 0.056605
vt 0.591879 0.037056
vt 0.591879 0.020116
vt 0.923515 0.026311
vt 0.922416 0.027955
vt 0.591879 0.506323
vt 0.591879 0.523264
vt 0.330357 0.015628
vt 0.304971 0.057007
vt 0.560433 0.037056
vt 0.560433 0.020116
vt 0.918448 0.023603
vt 0.917691 0.025430
vt 0.560433 0.506323
vt 0.560433 0.523264
vt 0.323391 0.011905
vt 0.305529 0.057305
vt 0.528986 0.037056
vt 0.528986 0.020116
vt 0.912951 0.021935
vt 0.912565 0.023875
vt 0.528986 0.506323
vt 0.528986 0.523264
vt 0.315833 0.009612
vt 0.306135 0.057489
vt 0.497539 0.037056
vt 0.497539 0.020116
vt 0.907233 0.021372
vt 0.907233 0.023350
vt 0.497539 0.506323
vt 0.497539 0.523264
vt 0.307973 0.008838
vt 0.306765 0.057551
vt 0.466092 0.037056
vt 0.466092 0.020116
vt 0.901516 0.021935
vt 0.901902 0.023875
vt 0.466092 0.506323
vt 0.466092 0.523264
vt 0.300113 0.009612
vt 0.307395 0.057489
vt 0.434646 0.037056
vt 0.434646 0.020116
vt 0.896019 0.023603
vt 0.896775 0.025430
vt 0.434646 0.506323
vt 0.434646 0.523264
vt 0.292555 0.011905
vt 0.308001 0.057305
vt 0.403199 0.037056
vt 0.403199 0.020116
vt 0.890952 0.026311
vt 0.892051 0.027955
vt 0.403199 0.506323
vt 0.403199 0.523264
vt 0.285589 0.015628
vt 0.308559 0.057007
vt 0.371752 0.037056
vt 0.371752 0.020116
vt 0.886511 0.029955
vt 0.887910 0.031354
vt 0.371752 0.506323
vt 0.371752 0.523264
vt 0.279484 0.020638
vt 0.309049 0.056605
vt 0.340305 0.037056
vt 0.340305 0.020116
vt 0.882867 0.034396
vt 0.884511 0.035495
vt 0.340305 0.506323
vt 0.340305 0.523264
vt 0.274473 0.026744
vt 0.309450 0.056116
vt 0.308859 0.037056
vt 0.308859 0.020116
vt 0.880159 0.039463
vt 0.881986 0.040220
vt 0.308859 0.506323
vt 0.308859 0.523264
vt 0.270750 0.033709
vt 0.309749 0.055557
vt 0.277412 0.037056
vt 0.277412 0.020116
vt 0.878491 0.044960
vt 0.880431 0.045346
vt 0.277412 0.506323
vt 0.277412 0.523264
vt 0.268458 0.041267
vt 0.309932 0.054952
vt 0.245965 0.037056
vt 0.245965 0.020116
vt 0.877928 0.050677
vt 0.879906 0.050677
vt 0.245965 0.506323
vt 0.245965 0.523264
vt 0.267683 0.049127
vt 0.309995 0.054322
vt 0.214518 0.037056
vt 0.214518 0.020116
vt 0.878491 0.056395
vt 0.880431 0.056009
vt 0.214518 0.506323
vt 0.214518 0.523264
vt 0.268458 0.056987
vt 0.309932 0.053692
vt 0.183072 0.037056
vt 0.183072 0.020116
vt 0.880159 0.061892
vt 0.881986 0.061135
vt 0.183072 0.506323
vt 0.183072 0.523264
vt 0.270750 0.064545
vt 0.309749 0.053086
vt 0.151625 0.037056
vt 0.151625 0.020116
vt 0.882867 0.066958
vt 0.884511 0.065860
vt 0.151625 0.506323
vt 0.151625 0.523264
vt 0.274473 0.071511
vt 0.309450 0.052527
vt 0.120178 0.037056
vt 0.120178 0.020116
vt 0.886511 0.071399
vt 0.887910 0.070001
vt 0.120178 0.506323
vt 0.120178 0.523264
vt 0.279484 0.077616
vt 0.309049 0.052038
vt 0.088731 0.037056
vt 0.088731 0.020116
vt 0.890952 0.075044
vt 0.892051 0.073399
vt 0.088731 0.506323
vt 0.088731 0.523264
vt 0.285589 0.082627
vt 0.308559 0.051636
vt 0.057284 0.037056
vt 0.057284 0.020116
vt 0.896019 0.077752
vt 0.896776 0.075925
vt 0.057284 0.506323
vt 0.057284 0.523264
vt 0.292555 0.086350
vt 0.308001 0.051338
vt 0.025838 0.037056
vt 0.025838 0.020116
vt 0.901516 0.079420
vt 0.901902 0.077480
vt 0.025838 0.506323
vt 0.025838 0.523264
vt 0.300113 0.088642
vt 0.307395 0.051154
vt -0.005609 0.037056
vt -0.005297 0.020116
vt -0.005609 0.506323
vt -0.005297 0.523264
vt 0.306180 0.051381
vt 0.306765 0.051323
vt 0.307350 0.051381
vt 0.307913 0.051551
vt 0.308431 0.051828
vt 0.308886 0.052201
vt 0.309258 0.052656
vt 0.309536 0.053174
vt 0.309706 0.053737
vt 0.309764 0.054322
vt 0.309706 0.054907
vt 0.309536 0.055469
vt 0.309258 0.055988
vt 0.308886 0.056442
vt 0.308431 0.056815
vt 0.307913 0.057092
vt 0.307350 0.057263
vt 0.306765 0.057320
vt 0.306180 0.057263
vt 0.305618 0.057092
vt 0.305099 0.056815
vt 0.304645 0.056442
vt 0.304272 0.055988
vt 0.303995 0.055469
vt 0.303824 0.054907
vt 0.303766 0.054322
vt 0.303824 0.053737
vt 0.303995 0.053174
vt 0.304272 0.052656
vt 0.304645 0.052201
vt 0.305099 0.051828
vt 0.305618 0.051551
vt 0.303785 0.046835
vt 0.303954 0.046276
vt 0.309916 0.047417
vt 0.309855 0.046790
vt 0.304924 0.044748
vt 0.304438 0.045147
vt 0.304230 0.045761
vt 0.306707 0.044437
vt 0.307289 0.044494
vt 0.306707 0.050626
vt 0.307333 0.050564
vt 0.304600 0.045309
vt 0.307848 0.044663
vt 0.308490 0.044748
vt 0.307935 0.044452
vt 0.305052 0.044939
vt 0.303498 0.047417
vt 0.303560 0.048043
vt 0.308363 0.044939
vt 0.305567 0.044663
vt 0.309376 0.049199
vt 0.309672 0.048645
vt 0.308814 0.045309
vt 0.306707 0.044207
vt 0.306081 0.044269
vt 0.306126 0.044494
vt 0.309185 0.045761
vt 0.304924 0.050085
vt 0.305479 0.050381
vt 0.309460 0.046276
vt 0.309672 0.046188
vt 0.309376 0.045634
vt 0.304039 0.045634
vt 0.303742 0.046188
vt 0.309630 0.046835
vt 0.307935 0.050381
vt 0.308490 0.050085
vt 0.309687 0.047417
vt 0.303742 0.048645
vt 0.304039 0.049199
vt 0.309630 0.047998
vt 0.309855 0.048043
vt 0.309460 0.048557
vt 0.305479 0.044452
vt 0.309185 0.049072
vt 0.303560 0.046790
vt 0.303727 0.047417
vt 0.303785 0.047998
vt 0.303954 0.048557
vt 0.304230 0.049072
vt 0.304600 0.049524
vt 0.304438 0.049686
vt 0.305052 0.049894
vt 0.305567 0.050170
vt 0.306126 0.050339
vt 0.306081 0.050564
vt 0.306707 0.050396
vt 0.307289 0.050339
vt 0.307848 0.050170
vt 0.308363 0.049894
vt 0.308814 0.049524
vt 0.308976 0.049686
vt 0.308976 0.045147
vt 0.307333 0.044269
vt 5.083447 0.574205
vt 5.083447 0.990903
vt 4.797951 0.990903
vt 4.797951 0.574205
vt 4.512454 0.990903
vt 4.512454 0.574205
vt 4.226957 0.990903
vt 4.226957 0.574205
vt 3.941461 0.990903
vt 3.941461 0.574205
vt 3.655964 0.990903
vt 3.655964 0.574205
vt 3.370467 0.990903
vt 3.370467 0.574205
vt 3.084970 0.990903
vt 3.084970 0.574205
vt 2.799475 0.990903
vt 2.799475 0.574205
vt 2.513978 0.990903
vt 2.513978 0.574205
vt 2.228481 0.990903
vt 2.228481 0.574205
vt 1.942984 0.990903
vt 1.942984 0.574205
vt 1.657488 0.990903
vt 1.657488 0.574205
vt 1.371992 0.990903
vt 1.371992 0.574205
vt 1.086496 0.990903
vt 1.086496 0.574205
vt 0.800999 0.990903
vt 0.800999 0.574205
vt 0.515502 0.990903
vt 0.515502 0.574205
vt 0.230005 0.990903
vt 0.230005 0.574205
vt -0.055491 0.990903
vt -0.055491 0.574205
vt -0.340988 0.990903
vt -0.340988 0.574205
vt -0.626485 0.990903
vt -0.626485 0.574205
vt -0.911981 0.990903
vt -0.911981 0.574205
vt -1.197477 0.990903
vt -1.197477 0.574205
vt -1.482974 0.990903
vt -1.482974 0.574205
vt -1.768471 0.990903
vt -1.768471 0.574205
vt -2.053967 0.990903
vt -2.053967 0.574205
vt -2.339463 0.990903
vt -2.339463 0.574205
vt -2.624960 0.990903
vt -2.624960 0.574205
vt -2.910457 0.990903
vt -2.910457 0.574205
vt -3.195953 0.990903
vt -3.195953 0.574205
vt -3.481450 0.990903
vt -3.481450 0.574205
vt 0.606721 0.812224
vt 0.600344 0.812852
vt 0.593968 0.812224
vt 0.587837 0.810364
vt 0.582186 0.807343
vt 0.577233 0.803279
vt 0.573168 0.798326
vt 0.570148 0.792675
vt 0.568288 0.786544
vt 0.567660 0.780167
vt 0.568288 0.773791
vt 0.570148 0.767659
vt 0.573168 0.762009
vt 0.577233 0.757056
vt 0.582186 0.752991
vt 0.587837 0.749970
vt 0.593968 0.748111
vt 0.600344 0.747483
vt 0.606721 0.748111
vt 0.612852 0.749970
vt 0.618503 0.752991
vt 0.623456 0.757056
vt 0.627521 0.762009
vt 0.630541 0.767659
vt 0.632401 0.773791
vt 0.633029 0.780167
vt 0.632401 0.786544
vt 0.630541 0.792675
vt 0.627521 0.798326
vt 0.623456 0.803279
vt 0.618503 0.807343
vt 0.612852 0.810364
vt -3.766946 0.990903
vt -3.766946 0.574205
vt -4.052443 0.990903
vt -4.052443 0.574205
vt 0.907233 0.079988
vt 0.912952 0.079425
vt 0.918450 0.077757
vt 0.923518 0.075048
vt 0.927959 0.071403
vt 0.931605 0.066962
vt 0.934313 0.061894
vt 0.935981 0.056396
vt 0.936544 0.050677
vt 0.935981 0.044959
vt 0.934313 0.039461
vt 0.931605 0.034393
vt 0.927959 0.029951
vt 0.923518 0.026306
vt 0.918450 0.023598
vt 0.912952 0.021930
vt 0.907233 0.021366
vt 0.901515 0.021930
vt 0.896017 0.023598
vt 0.890949 0.026306
vt 0.886507 0.029951
vt 0.882862 0.034393
vt 0.880154 0.039461
vt 0.878486 0.044959
vt 0.877922 0.050677
vt 0.878486 0.056396
vt 0.880154 0.061894
vt 0.882862 0.066962
vt 0.886507 0.071403
vt 0.890949 0.075048
vt 0.896017 0.077757
vt 0.901515 0.079425
s 1
usemtl Material.001
f 2/1/2 8/2/8 9/3/9 3/4/3
f 3/5/3 9/6/9 7/7/7 1/8/1
f 11/9/11 5/10/5 6/11/6 12/12/12
f 12/13/12 6/14/6 193/15/193 194/16/194
f 8/2/8 14/17/14 15/18/15 9/3/9
f 9/6/9 15/19/15 13/20/13 7/7/7
f 17/21/17 11/9/11 12/12/12 18/22/18
f 18/23/18 12/13/12 194/16/194 195/24/195
f 14/17/14 20/25/20 21/26/21 15/18/15
f 15/19/15 21/27/21 19/28/19 13/20/13
f 23/29/23 17/21/17 18/22/18 24/30/24
f 24/31/24 18/23/18 195/24/195 196/32/196
f 20/25/20 26/33/26 27/34/27 21/26/21
f 21/27/21 27/35/27 25/36/25 19/28/19
f 29/37/29 23/29/23 24/30/24 30/38/30
f 30/39/30 24/31/24 196/32/196 197/40/197
f 26/33/26 32/41/32 33/42/33 27/34/27
f 27/35/27 33/43/33 31/44/31 25/36/25
f 35/45/35 29/37/29 30/38/30 36/46/36
f 36/47/36 30/39/30 197/40/197 198/48/198
f 32/41/32 38/49/38 39/50/39 33/42/33
f 33/43/33 39/51/39 37/52/37 31/44/31
f 41/53/41 35/45/35 36/46/36 42/54/42
f 42/55/42 36/47/36 198/48/198 199/56/199
f 38/49/38 44/57/44 45/58/45 39/50/39
f 39/51/39 45/59/45 43/60/43 37/52/37
f 47/61/47 41/53/41 42/54/42 48/62/48
f 48/63/48 42/55/42 199/56/199 200/64/200
f 44/57/44 50/65/50 51/66/51 45/58/45
f 45/59/45 51/67/51 49/68/49 43/60/43
f 53/69/53 47/61/47 48/62/48 54/70/54
f 54/71/54 48/63/48 200/64/200 201/72/201
f 50/65/50 56/73/56 57/74/57 51/66/51
f 51/67/51 57/75/57 55/76/55 49/68/49
f 59/77/59 53/69/53 54/70/54 60/78/60
f 60/79/60 54/71/54 201/72/201 202/80/202
f 56/73/56 62/81/62 63/82/63 57/74/57
f 57/75/57 63/83/63 61/84/61 55/76/55
f 65/85/65 59/77/59 60/78/60 66/86/66
f 66/87/66 60/79/60 202/80/202 203/88/203
f 62/81/62 68/89/68 69/90/69 63/82/63
f 63/83/63 69/91/69 67/92/67 61/84/61
f 71/93/71 65/85/65 66/86/66 72/94/72
f 72/95/72 66/87/66 203/88/203 204/96/204
f 68/89/68 74/97/74 75/98/75 69/90/69
f 69/91/69 75/99/75 73/100/73 67/92/67
f 77/101/77 71/93/71 72/94/72 78/102/78
f 78/103/78 72/95/72 204/96/204 205/104/205
f 74/97/74 80/105/80 81/106/81 75/98/75
f 75/99/75 81/107/81 79/108/79 73/100/73
f 83/109/83 77/101/77 78/102/78 84/110/84
f 84/111/84 78/103/78 205/104/205 206/112/206
f 80/105/80 86/113/86 87/114/87 81/106/81
f 81/107/81 87/115/87 85/116/85 79/108/79
f 89/117/89 83/109/83 84/110/84 90/118/90
f 90/119/90 84/111/84 206/112/206 207/120/207
f 86/113/86 92/121/92 93/122/93 87/114/87
f 87/115/87 93/123/93 91/124/91 85/116/85
f 95/125/95 89/117/89 90/118/90 96/126/96
f 96/127/96 90/119/90 207/120/207 208/128/208
f 92/121/92 98/129/98 99/130/99 93/122/93
f 93/123/93 99/131/99 97/132/97 91/124/91
f 101/133/101 95/125/95 96/126/96 102/134/102
f 102/135/102 96/127/96 208/128/208 209/136/209
f 98/129/98 104/137/104 105/138/105 99/130/99
f 99/131/99 105/139/105 103/140/103 97/132/97
f 107/141/107 101/133/101 102/134/102 108/142/108
f 108/143/108 102/135/102 209/136/209 210/144/210
f 104/137/104 110/145/110 111/146/111 105/138/105
f 105/139/105 111/147/111 109/148/109 103/140/103
f 113/149/113 107/141/107 108/142/108 114/150/114
f 114/151/114 108/143/108 210/144/210 211/152/211
f 110/145/110 116/153/116 117/154/117 111/146/111
f 111/147/111 117/155/117 115/156/115 109/148/109
f 119/157/119 113/149/113 114/150/114 120/158/120
f 120/159/120 114/151/114 211/152/211 212/160/212
f 116/153/116 122/161/122 123/162/123 117/154/117
f 117/155/117 123/163/123 121/164/121 115/156/115
f 125/165/125 119/157/119 120/158/120 126/166/126
f 126/167/126 120/159/120 212/160/212 213/168/213
f 122/161/122 128/169/128 129/170/129 123/162/123
f 123/163/123 129/171/129 127/172/127 121/164/121
f 131/173/131 125/165/125 126/166/126 132/174/132
f 132/175/132 126/167/126 213/168/213 214/176/214
f 128/169/128 134/177/134 135/178/135 129/170/129
f 129/171/129 135/179/135 133/180/133 127/172/127
f 137/181/137 131/173/131 132/174/132 138/182/138
f 138/183/138 132/175/132 214/176/214 215/184/215
f 134/177/134 140/185/140 141/186/141 135/178/135
f 135/179/135 141/187/141 139/188/139 133/180/133
f 143/189/143 137/181/137 138/182/138 144/190/144
f 144/191/144 138/183/138 215/184/215 216/192/216
f 140/185/140 146/193/146 147/194/147 141/186/141
f 141/187/141 147/195/147 145/196/145 139/188/139
f 149/197/149 143/189/143 144/190/144 150/198/150
f 150/199/150 144/191/144 216/192/216 217/200/217
f 146/193/146 152/201/152 153/202/153 147/194/147
f 147/195/147 153/203/153 151/204/151 145/196/145
f 155/205/155 149/197/149 150/198/150 156/206/156
f 156/207/156 150/199/150 217/200/217 218/208/218
f 152/201/152 158/209/158 159/210/159 153/202/153
f 153/203/153 159/211/159 157/212/157 151/204/151
f 161/213/161 155/205/155 156/206/156 162/214/162
f 162/215/162 156/207/156 218/208/218 219/216/219
f 158/209/158 164/217/164 165/218/165 159/210/159
f 159/211/159 165/219/165 163/220/163 157/212/157
f 167/221/167 161/213/161 162/214/162 168/222/168
f 168/223/168 162/215/162 219/216/219 220/224/220
f 164/217/164 170/225/170 171/226/171 165/218/165
f 165/219/165 171/227/171 169/228/169 163/220/163
f 173/229/173 167/221/167 168/222/168 174/230/174
f 174/231/174 168/223/168 220/224/220 221/232/221
f 170/225/170 176/233/176 177/234/177 171/226/171
f 171/227/171 177/235/177 175/236/175 169/228/169
f 179/237/179 173/229/173 174/230/174 180/238/180
f 180/239/180 174/231/174 221/232/221 222/240/222
f 176/233/176 182/241/182 183/242/183 177/234/177
f 177/235/177 183/243/183 181/244/181 175/236/175
f 185/245/185 179/237/179 180/238/180 186/246/186
f 186/247/186 180/239/180 222/240/222 223/248/223
f 182/241/182 188/249/188 189/250/189 183/242/183
f 183/243/183 189/251/189 187/252/187 181/244/181
f 191/253/191 185/245/185 186/246/186 192/254/192
f 192/255/192 186/247/186 223/248/223 224/256/224
f 188/249/188 2/257/2 3/258/3 189/250/189
f 189/251/189 3/5/3 1/8/1 187/252/187
f 5/259/5 191/253/191 192/254/192 6/260/6
f 6/14/6 192/255/192 224/256/224 193/15/193
f 1/8/1 7/7/7 13/20/13 19/28/19 25/36/25 31/44/31 37/52/37 43/60/43 49/68/49 55/76/55 61/84/61 67/92/67 73/100/73 79/108/79 85/116/85 91/124/91 97/132/97 103/140/103 109/148/109 115/156/115 121/164/121 127/172/127 133/180/133 139/188/139 145/196/145 151/204/151 157/212/157 163/220/163 169/228/169 175/236/175 181/244/181 187/252/187
f 2/1/2 5/10/5 11/9/11 8/2/8
f 188/249/188 191/253/191 5/259/5 2/257/2
f 10/261/10 4/262/4 190/263/190 184/264/184 178/265/178 172/266/172 166/267/166 160/268/160 154/269/154 148/270/148 142/271/142 136/272/136 130/273/130 124/274/124 118/275/118 112/276/112 106/277/106 100/278/100 94/279/94 88/280/88 82/281/82 76/282/76 70/283/70 64/284/64 58/285/58 52/286/52 46/287/46 40/288/40 34/289/34 28/290/28 22/291/22 16/292/16
f 8/2/8 11/9/11 17/21/17 14/17/14
f 14/17/14 17/21/17 23/29/23 20/25/20
f 20/25/20 23/29/23 29/37/29 26/33/26
f 26/33/26 29/37/29 35/45/35 32/41/32
f 32/41/32 35/45/35 41/53/41 38/49/38
f 38/49/38 41/53/41 47/61/47 44/57/44
f 44/57/44 47/61/47 53/69/53 50/65/50
f 50/65/50 53/69/53 59/77/59 56/73/56
f 56/73/56 59/77/59 65/85/65 62/81/62
f 62/81/62 65/85/65 71/93/71 68/89/68
f 68/89/68 71/93/71 77/101/77 74/97/74
f 74/97/74 77/101/77 83/109/83 80/105/80
f 80/105/80 83/109/83 89/117/89 86/113/86
f 86/113/86 89/117/89 95/125/95 92/121/92
f 92/121/92 95/125/95 101/133/101 98/129/98
f 98/129/98 101/133/101 107/141/107 104/137/104
f 104/137/104 107/141/107 113/149/113 110/145/110
f 110/145/110 113/149/113 119/157/119 116/153/116
f 116/153/116 119/157/119 125/165/125 122/161/122
f 122/161/122 125/165/125 131/173/131 128/169/128
f 128/169/128 131/173/131 137/181/137 134/177/134
f 134/177/134 137/181/137 143/189/143 140/185/140
f 140/185/140 143/189/143 149/197/149 146/193/146
f 146/193/146 149/197/149 155/205/155 152/201/152
f 152/201/152 155/205/155 161/213/161 158/209/158
f 158/209/158 161/213/161 167/221/167 164/217/164
f 164/217/164 167/221/167 173/229/173 170/225/170
f 170/225/170 173/229/173 179/237/179 176/233/176
f 176/233/176 179/237/179 185/245/185 182/241/182
f 182/241/182 185/245/185 191/253/191 188/249/188
f 40/288/40 46/287/46 264/293/232 263/294/231
f 218/208/218 217/200/217 249/295/52 250/296/58
f 197/40/197 196/32/196 228/297/118 229/298/124
f 34/289/34 40/288/40 263/294/231 262/299/230
f 190/263/190 4/262/4 257/300/225 288/301/256
f 210/144/210 209/136/209 241/302/4 242/303/10
f 28/290/28 34/289/34 262/299/230 261/304/229
f 184/264/184 190/263/190 288/301/256 287/305/255
f 223/248/223 222/240/222 254/306/82 255/307/88
f 22/291/22 28/290/28 261/304/229 260/308/228
f 202/80/202 201/72/201 233/309/148 234/310/154
f 178/265/178 184/264/184 287/305/255 286/311/254
f 16/292/16 22/291/22 260/308/228 259/312/227
f 215/184/215 214/176/214 246/313/34 247/314/40
f 172/266/172 178/265/178 286/311/254 285/315/253
f 194/16/194 193/15/193 225/316/100 226/317/106
f 10/261/10 16/292/16 259/312/227 258/318/226
f 166/267/166 172/266/172 285/315/253 284/319/252
f 207/120/207 206/112/206 238/320/178 239/321/184
f 4/262/4 10/261/10 258/318/226 257/300/225
f 160/268/160 166/267/166 284/319/252 283/322/251
f 220/224/220 219/216/219 251/323/64 252/324/70
f 199/56/199 198/48/198 230/325/130 231/326/136
f 154/269/154 160/268/160 283/322/251 282/327/250
f 212/160/212 211/152/211 243/328/16 244/329/22
f 148/270/148 154/269/154 282/327/250 281/330/249
f 204/96/204 203/88/203 235/331/160 236/332/166
f 142/271/142 148/270/148 281/330/249 280/333/248
f 217/200/217 216/192/216 248/334/46 249/295/52
f 136/272/136 142/271/142 280/333/248 279/335/247
f 196/32/196 195/24/195 227/336/112 228/297/118
f 130/273/130 136/272/136 279/335/247 278/337/246
f 257/300/225 258/318/226 226/317/106 225/316/100
f 258/318/226 259/312/227 227/336/112 226/317/106
f 259/312/227 260/308/228 228/297/118 227/336/112
f 260/308/228 261/304/229 229/298/124 228/297/118
f 261/304/229 262/299/230 230/325/130 229/298/124
f 262/299/230 263/294/231 231/326/136 230/325/130
f 263/294/231 264/293/232 232/338/142 231/326/136
f 264/293/232 265/339/233 233/309/148 232/338/142
f 265/339/233 266/340/234 234/310/154 233/309/148
f 266/340/234 267/341/235 235/331/160 234/310/154
f 267/341/235 268/342/236 236/332/166 235/331/160
f 268/342/236 269/343/237 237/344/172 236/332/166
f 269/343/237 270/345/238 238/320/178 237/344/172
f 270/345/238 271/346/239 239/321/184 238/320/178
f 271/346/239 272/347/240 240/348/190 239/321/184
f 272/347/240 273/349/241 241/302/4 240/348/190
f 273/349/241 274/350/242 242/303/10 241/302/4
f 274/350/242 275/351/243 243/328/16 242/303/10
f 275/351/243 276/352/244 244/329/22 243/328/16
f 276/352/244 277/353/245 245/354/28 244/329/22
f 277/353/245 278/337/246 246/313/34 245/354/28
f 278/337/246 279/335/247 247/314/40 246/313/34
f 279/335/247 280/333/248 248/334/46 247/314/40
f 280/333/248 281/330/249 249/295/52 248/334/46
f 281/330/249 282/327/250 250/296/58 249/295/52
f 282/327/250 283/322/251 251/323/64 250/296/58
f 283/322/251 284/319/252 252/324/70 251/323/64
f 284/319/252 285/315/253 253/355/76 252/324/70
f 285/315/253 286/311/254 254/306/82 253/355/76
f 286/311/254 287/305/255 255/307/88 254/306/82
f 287/305/255 288/301/256 256/356/94 255/307/88
f 288/301/256 257/300/225 225/316/100 256/356/94
f 205/104/205 204/96/204 236/332/166 237/344/172
f 46/287/46 52/286/52 265/339/233 264/293/232
f 52/286/52 58/285/58 266/340/234 265/339/233
f 213/168/213 212/160/212 244/329/22 245/354/28
f 58/285/58 64/284/64 267/341/235 266/340/234
f 200/64/200 199/56/199 231/326/136 232/338/142
f 221/232/221 220/224/220 252/324/70 253/355/76
f 64/284/64 70/283/70 268/342/236 267/341/235
f 208/128/208 207/120/207 239/321/184 240/348/190
f 70/283/70 76/282/76 269/343/237 268/342/236
f 195/24/195 194/16/194 226/317/106 227/336/112
f 76/282/76 82/281/82 270/345/238 269/343/237
f 216/192/216 215/184/215 247/314/40 248/334/46
f 82/281/82 88/280/88 271/346/239 270/345/238
f 203/88/203 202/80/202 234/310/154 235/331/160
f 224/256/224 223/248/223 255/307/88 256/356/94
f 88/280/88 94/279/94 272/347/240 271/346/239
f 211/152/211 210/144/210 242/303/10 243/328/16
f 94/279/94 100/278/100 273/349/241 272/347/240
f 198/48/198 197/40/197 229/298/124 230/325/130
f 219/216/219 218/208/218 250/296/58 251/323/64
f 100/278/100 106/277/106 274/350/242 273/349/241
f 206/112/206 205/104/205 237/344/172 238/320/178
f 106/277/106 112/276/112 275/351/243 274/350/242
f 112/276/112 118/275/118 276/352/244 275/351/243
f 214/176/214 213/168/213 245/354/28 246/313/34
f 118/275/118 124/274/124 277/353/245 276/352/244
f 201/72/201 200/64/200 232/338/142 233/309/148
f 193/15/193 224/256/224 256/356/94 225/316/100
f 222/240/222 221/232/221 253/355/76 254/306/82
f 124/274/124 130/273/130 278/337/246 277/353/245
f 209/136/209 208/128/208 240/348/190 241/302/4
f 289/455/257 291/456/258 293/457/259 295/458/260 297/459/261 299/460/262 301/461/263 303/462/264 305/463/265 307/464/266 309/465/267 311/466/268 313/467/269 315/468/270 317/469/271 319/470/272 321/471/273 323/472/274 325/473/275 327/474/276 329/475/277 331/476/278 333/477/279 335/478/280 337/479/281 339/480/282 341/481/283 343/482/284 345/483/285 347/484/286 349/485/287 351/486/288
usemtl Material.002
f 289/357/257 290/358/100 292/359/106 291/360/258
f 291/360/258 292/359/106 294/361/112 293/362/259
f 293/362/259 294/361/112 296/363/118 295/364/260
f 295/364/260 296/363/118 298/365/124 297/366/261
f 297/366/261 298/365/124 300/367/130 299/368/262
f 299/368/262 300/367/130 302/369/136 301/370/263
f 301/370/263 302/369/136 304/371/142 303/372/264
f 303/372/264 304/371/142 306/373/148 305/374/265
f 305/374/265 306/373/148 308/375/154 307/376/266
f 307/376/266 308/375/154 310/377/160 309/378/267
f 309/378/267 310/377/160 312/379/166 311/380/268
f 311/380/268 312/379/166 314/381/172 313/382/269
f 313/382/269 314/381/172 316/383/178 315/384/270
f 315/384/270 316/383/178 318/385/184 317/386/271
f 317/386/271 318/385/184 320/387/190 319/388/272
f 319/388/272 320/387/190 322/389/4 321/390/273
f 321/390/273 322/389/4 324/391/10 323/392/274
f 323/392/274 324/391/10 326/393/16 325/394/275
f 325/394/275 326/393/16 328/395/22 327/396/276
f 327/396/276 328/395/22 330/397/28 329/398/277
f 329/398/277 330/397/28 332/399/34 331/400/278
f 331/400/278 332/399/34 334/401/40 333/402/279
f 333/402/279 334/401/40 336/403/46 335/404/280
f 335/404/280 336/403/46 338/405/52 337/406/281
f 337/406/281 338/405/52 340/407/58 339/408/282
f 339/408/282 340/407/58 342/409/64 341/410/283
f 341/410/283 342/409/64 344/411/70 343/412/284
f 343/412/284 344/411/70 346/413/76 345/414/285
f 345/414/285 346/413/76 348/415/82 347/416/286
f 347/416/286 348/415/82 350/417/88 349/418/287
f 292/419/106 290/420/100 352/421/94 350/422/88 348/423/82 346/424/76 344/425/70 342/426/64 340/427/58 338/428/52 336/429/46 334/430/40 332/431/34 330/432/28 328/433/22 326/434/16 324/435/10 322/436/4 320/437/190 318/438/184 316/439/178 314/440/172 312/441/166 310/442/160 308/443/154 306/444/148 304/445/142 302/446/136 300/447/130 298/448/124 296/449/118 294/450/112
f 349/418/287 350/417/88 352/451/94 351/452/288
f 351/452/288 352/451/94 290/453/100 289/454/257
